<?xml version="1.0" encoding="UTF-8"?>
<svg width="574px" height="574px" viewBox="0 0 574 574" version="1.1" xmlns="http://www.w3.org/2000/svg" xmlns:xlink="http://www.w3.org/1999/xlink">
    <!-- Generator: Sketch 46.2 (44496) - http://www.bohemiancoding.com/sketch -->
    <title>Untitled</title>
    <desc>Created with Sketch.</desc>
    <defs></defs>
    <g id="Page-1" stroke="none" stroke-width="1" fill="none" fill-rule="evenodd">
        <g id="logo" transform="translate(-3.000000, -3.000000)" fill-rule="nonzero">
            <g id="g2179" transform="translate(0.918100, 0.414606)" stroke="#FFFFFF" stroke-width="3.40799999" fill="#646464">
                <path d="M65.4318,0.9239 C24.0968,0.9239 0.8608,22.2949 0.8608,65.9599 L0.8608,516.082 C0.8608,556.925 21.7518,578.31 63.0528,578.31 L515.077,578.31 C556.38,578.31 577.303,557.99 577.303,516.082 L577.303,65.9599 C577.303,23.3599 556.38,0.9239 513.78,0.9239 C513.78,0.9239 65.2888,0.7819 65.4318,0.9239 Z" id="path2181"></path>
            </g>
            <g id="g2183" transform="translate(73.918100, 102.414606)" fill="#FFFFFF">
                <polygon id="path2185" points="0.7058 324.447 80.756 324.447 80.756 242.973 160.29 242.973 160.29 160.947 241.079 160.947 241.079 80.448 321.32 80.448 321.32 0.474 440.458 0.474 440.458 41.278 361.256 41.278 361.256 121.555 280.924 121.555 280.924 202.964 200.756 202.964 200.756 283.947 120.256 283.947 120.256 365.619 0.7058 365.619"></polygon>
            </g>
        </g>
    </g>
</svg>