<?xml version="1.0" encoding="UTF-8"?>
<svg width="402px" height="401px" viewBox="0 0 402 401" version="1.1" xmlns="http://www.w3.org/2000/svg" xmlns:xlink="http://www.w3.org/1999/xlink">
    <!-- Generator: Sketch 46.2 (44496) - http://www.bohemiancoding.com/sketch -->
    <title>Untitled</title>
    <desc>Created with Sketch.</desc>
    <defs></defs>
    <g id="Page-1" stroke="none" stroke-width="1" fill="none" fill-rule="evenodd">
        <path d="M125.113,1.585 C124.845,1.89 123.585,2.265 122.313,2.419 C121.041,2.572 119.28,2.93 118.4,3.213 C117.52,3.496 116.17,3.852 115.4,4.006 C114.63,4.159 112.2,4.822 110,5.48 C107.8,6.137 105.169,6.912 104.153,7.201 C103.137,7.491 101.967,7.904 101.553,8.12 C101.139,8.336 98.82,9.271 96.4,10.199 C75.709,18.127 55.533,32.404 39.315,50.596 C36.474,53.784 33.663,57.114 33.069,57.996 C32.476,58.878 30.714,61.317 29.155,63.415 C27.595,65.513 26.086,67.673 25.8,68.215 C25.514,68.757 24.523,70.37 23.598,71.8 C19.64,77.916 15.118,87.044 11.808,95.6 C9.224,102.278 9.132,102.539 8.003,106.4 C5.713,114.238 4.393,119.593 4.01,122.6 C3.884,123.59 3.529,125.57 3.221,127 C2.914,128.43 2.484,131.665 2.266,134.188 C2.041,136.798 1.683,138.839 1.435,138.922 C0.831,139.123 0.823,162.874 1.428,163.076 C1.663,163.154 2.033,165.194 2.25,167.609 C2.774,173.444 5.137,186.42 6.255,189.6 C6.487,190.26 6.918,191.79 7.213,193 C7.752,195.215 8.627,198.013 9.589,200.6 C9.875,201.37 10.607,203.35 11.215,205 C12.269,207.864 12.735,208.992 14.64,213.3 C18.183,221.309 23.822,231.214 28.701,238 C29.966,239.76 31.316,241.639 31.701,242.175 C40.909,255.019 56.33,269.307 71.527,279.075 C78.213,283.373 94.562,291.8 96.214,291.8 C96.468,291.8 97.154,292.048 97.738,292.351 C100.267,293.664 106.549,295.738 113.6,297.59 C114.92,297.937 116.876,298.486 117.946,298.81 C119.016,299.135 120.243,299.4 120.672,299.4 C121.102,299.4 123.016,299.746 124.926,300.17 C128.325,300.923 131.544,301.404 138.8,302.242 C144.362,302.885 167.457,302.489 172.4,301.667 C180.342,300.345 181.64,300.119 184.2,299.612 C187.913,298.876 195.962,296.746 198.8,295.748 C199.46,295.516 200.81,295.073 201.8,294.764 C202.79,294.454 203.96,294.041 204.4,293.844 C204.84,293.648 206.73,292.911 208.6,292.206 C213.744,290.267 222.509,286.122 226,283.978 C226.88,283.437 228.14,282.718 228.8,282.381 C232.199,280.641 242.289,273.852 246.157,270.702 C247.171,269.877 248.344,268.931 248.765,268.601 C254.681,263.958 265.396,253.24 270.201,247.16 C270.531,246.742 271.46,245.59 272.264,244.6 C274.72,241.578 280.816,232.763 282.361,230 C282.73,229.34 283.43,228.13 283.916,227.311 C286.185,223.488 289.086,217.873 290.792,214 C291.374,212.68 292.006,211.307 292.197,210.95 C292.388,210.592 293.117,208.792 293.816,206.95 C294.516,205.107 295.24,203.24 295.426,202.8 C295.751,202.03 296.949,198.411 298.405,193.8 C299.206,191.264 300.145,187.415 301.626,180.6 C302.179,178.055 303.042,172.188 303.862,165.4 C304.382,161.089 304.057,135.042 303.454,132.753 C303.215,131.847 302.832,129.447 302.602,127.419 C302.372,125.391 301.932,122.712 301.624,121.466 C301.316,120.22 300.884,118.3 300.663,117.2 C299.873,113.255 298.428,108.183 296.503,102.6 C295.859,100.73 295.074,98.396 294.759,97.413 C294.444,96.43 294.009,95.449 293.793,95.233 C293.577,95.017 293.4,94.578 293.4,94.259 C293.4,93.939 292.934,92.67 292.364,91.439 C291.794,90.207 290.961,88.39 290.512,87.4 C289.178,84.456 287.821,81.771 286.168,78.8 C285.311,77.26 284.33,75.46 283.99,74.8 C283.649,74.14 282.84,72.79 282.192,71.8 C281.544,70.81 280.875,69.73 280.707,69.4 C279.638,67.309 271.946,56.641 270.612,55.4 C270.494,55.29 269.092,53.634 267.496,51.721 C263.834,47.329 256.229,39.73 251.8,36.037 C249.93,34.478 248.31,33.106 248.2,32.988 C246.284,30.929 232.961,21.749 228.8,19.62 C228.14,19.282 226.34,18.284 224.8,17.401 C222.124,15.868 219.481,14.546 216,13 C215.12,12.609 213.376,11.819 212.125,11.245 C210.873,10.67 209.604,10.2 209.305,10.2 C209.005,10.2 208.589,10.034 208.38,9.832 C207.994,9.458 204.664,8.21 201.4,7.216 C200.41,6.914 199.06,6.479 198.4,6.249 C194.781,4.986 185.727,2.696 183.09,2.377 C181.929,2.237 180.727,1.87 180.418,1.561 C179.586,0.729 125.845,0.752 125.113,1.585 M316.2,1.441 C316.2,1.684 317.415,3.273 318.9,4.973 C324.222,11.065 325.606,12.703 325.974,13.347 C326.18,13.706 327.208,15.095 328.258,16.434 C331.316,20.329 338.6,30.805 338.6,31.307 C338.6,31.434 338.899,31.867 339.264,32.271 C339.63,32.675 340.125,33.354 340.364,33.779 C340.604,34.205 342.337,37.219 344.216,40.477 C347.264,45.76 352.333,55.666 354.515,60.6 C354.953,61.59 355.781,63.424 356.355,64.675 C356.93,65.927 357.4,67.221 357.4,67.552 C357.4,67.882 357.575,68.261 357.79,68.394 C358.004,68.526 358.446,69.482 358.772,70.517 C359.099,71.553 359.828,73.66 360.393,75.2 C361.634,78.584 363.132,83.083 364.19,86.6 C364.62,88.03 365.27,90.19 365.635,91.4 C366.001,92.61 366.531,94.59 366.814,95.8 C367.096,97.01 367.507,98.72 367.726,99.6 C372.437,118.528 374.291,139.846 373.188,162.4 C372.876,168.78 372.355,175.71 372.031,177.8 C371.708,179.89 371.253,182.95 371.021,184.6 C369.747,193.67 367.675,203.315 364.964,212.8 C364.524,214.34 363.913,216.5 363.606,217.6 C363.065,219.54 362.466,221.343 360.916,225.694 C359.013,231.035 358.464,232.474 357.951,233.462 C357.648,234.046 357.4,234.732 357.4,234.986 C357.4,235.241 356.934,236.473 356.365,237.725 C355.796,238.976 355.052,240.63 354.711,241.4 C354.37,242.17 353.773,243.52 353.383,244.4 C352.625,246.112 347.575,256.399 347.002,257.4 C346.814,257.73 345.373,260.25 343.801,263 C342.229,265.75 340.24,269.08 339.381,270.4 C338.522,271.72 337.452,273.43 337.002,274.2 C336.553,274.97 335.019,277.27 333.593,279.311 C330.436,283.829 330.431,283.955 333.3,286.624 C336.507,289.609 349.431,301.901 352.41,304.8 C354.852,307.176 374.156,325.571 377.807,329 C378.158,329.33 382.215,333.221 386.823,337.646 C398.821,349.171 400.351,350.6 400.694,350.6 C400.862,350.6 401,271.94 401,175.8 L401,1 L358.6,1 C327.952,1 316.2,1.122 316.2,1.441 M1,358 L1,401 L176,401 C326.714,401 351,400.921 351,400.433 C351,400.122 350.838,399.807 350.639,399.733 C350.441,399.66 345.986,395.461 340.739,390.401 C335.493,385.342 329.045,379.132 326.411,376.601 C323.778,374.071 319.368,369.813 316.611,367.139 C313.855,364.465 310.405,361.135 308.944,359.739 C307.483,358.343 301.993,353.055 296.744,347.99 C278.779,330.653 281.485,332.147 275.339,336.175 C269.143,340.237 267.533,341.225 261.6,344.603 C259.62,345.731 257.73,346.809 257.4,347 C256.418,347.566 246.131,352.648 244.4,353.422 C243.52,353.816 241.99,354.494 241,354.93 C240.01,355.367 238.37,356.101 237.356,356.562 C236.342,357.023 235.345,357.4 235.141,357.4 C234.936,357.4 234.063,357.76 233.2,358.2 C232.337,358.64 231.349,359 231.004,359 C230.66,359 230.023,359.242 229.589,359.537 C229.155,359.832 228.08,360.267 227.2,360.503 C226.32,360.739 224.07,361.459 222.2,362.104 C220.33,362.748 217.54,363.655 216,364.119 C214.46,364.583 212.017,365.331 210.572,365.781 C209.126,366.232 207.637,366.6 207.263,366.6 C206.889,366.6 205.282,366.949 203.692,367.375 C198.535,368.757 191.812,370.064 185,371.008 C171.686,372.853 172.64,372.8 152.8,372.786 C138.96,372.776 132.93,372.632 131.2,372.269 C129.88,371.992 126.871,371.603 124.512,371.405 C122.154,371.207 118.824,370.77 117.112,370.435 C115.401,370.1 112.92,369.648 111.6,369.431 C108.667,368.949 105.863,368.375 101.4,367.341 C96.601,366.23 87.606,363.792 85.2,362.951 C84.54,362.72 83.01,362.26 81.8,361.929 C80.59,361.597 79.42,361.184 79.2,361.009 C78.98,360.835 78.17,360.561 77.4,360.4 C76.63,360.239 75.55,359.88 75,359.603 C73.699,358.946 69.676,357.4 69.267,357.4 C68.912,357.4 64.97,355.654 63.338,354.773 C62.754,354.458 62.064,354.2 61.804,354.2 C60.773,354.2 45.177,346.2 38.801,342.4 C37.325,341.52 35.674,340.559 35.132,340.265 C32.775,338.986 23.411,332.504 18,328.406 C12.795,324.464 11.189,323.146 4.945,317.7 C3.243,316.215 1.659,315 1.425,315 C1.128,315 1,327.913 1,358 M386.722,365.9 C364.562,388.134 352.6,400.325 352.6,400.673 C352.6,400.853 363.49,401 376.8,401 L401,401 L401,376.6 C401,363.18 400.859,352.2 400.688,352.2 C400.516,352.2 394.231,358.365 386.722,365.9" id="path1" fill="#C8C8C8"></path>
    </g>
</svg>