<?xml version="1.0" encoding="UTF-8"?>
<svg width="7px" height="5px" viewBox="0 0 7 5" version="1.1" xmlns="http://www.w3.org/2000/svg" xmlns:xlink="http://www.w3.org/1999/xlink">
    <!-- Generator: Sketch 46.2 (44496) - http://www.bohemiancoding.com/sketch -->
    <title>Portfolio</title>
    <desc>Created with Sketch.</desc>
    <defs></defs>
    <g id="Page-1" stroke="none" stroke-width="1" fill="none" fill-rule="evenodd">
        <path d="M3.4978758,1.01043836 C4.46776209,1.01043836 5.35168062,1.36772603 6.02942647,1.95358904 L6.5,1.43405479 C5.69730101,0.737232877 4.64894415,0.25 3.4978758,0.25 C2.34855679,0.25 1.30169936,0.735753425 0.5,1.43035616 L0.96957391,1.95063014 C1.64681994,1.36649315 2.52923904,1.01043836 3.4978758,1.01043836 L3.4978758,1.01043836 Z M5.01980507,3.06884932 L5.51761839,2.5189863 C4.97582157,2.05394521 4.27108584,1.75016438 3.4978758,1.75016438 C2.72616519,1.75016438 2.02192928,2.05320548 1.48063226,2.51676712 L1.97769586,3.06736986 C2.38704236,2.72043836 2.9173435,2.51010959 3.4978758,2.51010959 C4.07915782,2.51010959 4.61020867,2.72117808 5.01980507,3.06884932 Z M4.52174185,3.61871233 C4.24459578,3.38865753 3.8877296,3.22936986 3.49762589,3.22936986 C3.1082719,3.22936986 2.75190554,3.38841096 2.47475947,3.61747945 L3.49762589,4.75 L4.52174185,3.61871233 L4.52174185,3.61871233 Z" id="wifi" fill="#646464"></path>
    </g>
</svg>