<?xml version="1.0" encoding="UTF-8"?>
<svg width="10px" height="5px" viewBox="0 0 10 5" version="1.1" xmlns="http://www.w3.org/2000/svg" xmlns:xlink="http://www.w3.org/1999/xlink">
    <!-- Generator: Sketch 46.2 (44496) - http://www.bohemiancoding.com/sketch -->
    <title>battery</title>
    <desc>Created with Sketch.</desc>
    <defs></defs>
    <g id="Page-1" stroke="none" stroke-width="1" fill="none" fill-rule="evenodd">
        <g id="StatusBar-Dark-iPhone3" transform="translate(-0.500000, 0.000000)" fill="#646464">
            <path d="M0.66003418,0.84375 L0.66003418,0.84375 C0.66003418,0.567607625 0.883891805,0.34375 1.16003418,0.34375 L1.16003418,0.34375 L8.58243408,0.34375 C8.85857646,0.34375 9.08243408,0.567607625 9.08243408,0.84375 L9.08243408,0.84375 L9.08243408,3.84375 C9.08243408,4.11989237 8.85857646,4.34375 8.58243408,4.34375 L1.16003418,4.34375 C0.883891805,4.34375 0.66003418,4.11989237 0.66003418,3.84375 L0.66003418,0.84375 Z M1.06107585,1.24375 L1.06107585,3.44375 L1.06107585,3.44375 C1.06107585,3.71989237 1.28493347,3.94375 1.56107585,3.94375 L8.18134277,3.94375012 L8.18134277,3.94375013 C8.45748515,3.94375013 8.68134278,3.71989251 8.68134278,3.44375014 C8.68134278,3.44375014 8.68134278,3.44375013 8.68134278,3.44375013 L8.68134277,1.24375 L8.68134277,1.24375 C8.68134277,0.967607627 8.45748515,0.743750002 8.18134277,0.743750002 L1.56107585,0.743750004 L1.56107585,0.743750005 C1.28493347,0.743750005 1.06107585,0.96760763 1.06107585,1.24375 L1.06107585,1.24375 Z M1.46211751,1.64375 C1.46211751,1.36760763 1.68597514,1.14375 1.96211751,1.14375 L7.78878418,1.14375 C8.06492655,1.14375 8.28878418,1.36760763 8.28878418,1.64375 L8.28878418,3.04375 C8.28878418,3.31989237 8.06492655,3.54375 7.78878418,3.54375 L1.96211751,3.54375 C1.68597514,3.54375 1.46211751,3.31989237 1.46211751,3.04375 L1.46211751,1.64375 Z M10.28243,2.34375 C10.28243,2.75089882 9.93473548,3.08772828 9.48243001,3.14375 L9.48243001,1.54375 C9.93473548,1.59977172 10.28243,1.93660118 10.28243,2.34375 Z" id="battery"></path>
        </g>
    </g>
</svg>