<?xml version="1.0" encoding="UTF-8"?>
<svg width="438px" height="438px" viewBox="0 0 438 438" version="1.1" xmlns="http://www.w3.org/2000/svg" xmlns:xlink="http://www.w3.org/1999/xlink">
    <!-- Generator: Sketch 46.2 (44496) - http://www.bohemiancoding.com/sketch -->
    <title>Untitled</title>
    <desc>Created with Sketch.</desc>
    <defs></defs>
    <g id="Page-1" stroke="none" stroke-width="1" fill="none" fill-rule="evenodd">
        <path d="M210.915,252.078 L56.914,406.067 C53.644,409.342 51.647,413.885 51.647,418.882 C51.647,428.87 59.736,437.05 69.819,437.05 C72.454,437.05 74.902,436.5 77.174,435.506 C77.174,435.506 333.752,324.3 336.659,322.932 C342.65,320.219 347.289,314.947 349.107,308.401 L390.633,158.766 L398.989,167.034 C407.704,175.756 421.792,175.756 430.503,167.034 C439.234,158.313 439.234,144.223 430.503,135.51 L302.492,7.489 C293.78,-1.232 279.688,-1.232 270.977,7.489 C262.246,16.21 262.246,30.3 270.977,39.013 L279.237,47.281 L129.326,88.982 C122.783,90.899 117.515,95.619 114.787,101.794 L2.4,361.104 C1.494,363.278 0.948,365.647 0.948,368.184 C0.948,378.271 9.125,386.356 19.12,386.356 C24.301,386.356 28.932,384.262 32.203,380.82 L185.927,227.094 C183.839,221.725 182.658,216.001 182.658,209.916 C182.658,184.842 203.012,164.488 228.087,164.488 C253.159,164.488 273.513,184.842 273.513,209.916 C273.513,234.99 253.159,255.345 228.087,255.345 C222.001,255.345 216.277,254.164 210.915,252.078 Z" id="Shape" fill="#C8C8C8"></path>
    </g>
</svg>