<?xml version="1.0" encoding="UTF-8"?>
<svg width="25px" height="30px" viewBox="0 0 25 30" version="1.1" xmlns="http://www.w3.org/2000/svg" xmlns:xlink="http://www.w3.org/1999/xlink">
    <!-- Generator: Sketch 46.2 (44496) - http://www.bohemiancoding.com/sketch -->
    <title>Untitled</title>
    <desc>Created with Sketch.</desc>
    <defs></defs>
    <g id="Page-1" stroke="none" stroke-width="1" fill="none" fill-rule="evenodd">
        <path d="M18,30 L14.004,30 L10.004,30 C10.004,30 10.015,27.628 10.004,26 C4.531,27.178 3.004,23 3.004,23 C2.004,21 1.004,20 1.004,20 C-0.996,18.812 1.004,19 1.004,19 C3.004,19 4.004,21 4.004,21 C5.759,23.981 8.882,23.501 10.004,23 C10.004,22 10.442,20.488 11.004,20 C6.636,19.508 3,17 3,12 C3,7 4.004,6 5.004,5 C4.802,4.507 3.965,2.685 5.035,0 C5.035,0 7,0 9,3 C9.991,2.009 13,2 14.001,2 C15,2 18.009,2.009 19,3 C21,0 22.969,0 22.969,0 C24.039,2.685 23.202,4.507 23,5 C24,6 25,7 25,12 C25,17 21.368,19.508 17,20 C17.562,20.488 18,22.21 18,23 L18,30 Z" id="Cat" fill="#C8C8C8"></path>
    </g>
</svg>