<?xml version="1.0" encoding="UTF-8"?>
<svg width="480px" height="450px" viewBox="0 0 480 450" version="1.1" xmlns="http://www.w3.org/2000/svg" xmlns:xlink="http://www.w3.org/1999/xlink">
    <!-- Generator: Sketch 46.2 (44496) - http://www.bohemiancoding.com/sketch -->
    <title>Untitled 2</title>
    <desc>Created with Sketch.</desc>
    <defs></defs>
    <g id="Page-1" stroke="none" stroke-width="1" fill="none" fill-rule="evenodd">
        <path d="M288.89659,109.55181 C288.345616,109.824922 287.894387,110.277338 287.894387,110.556388 C287.894387,110.836624 287.593963,111.315164 287.225856,111.61915 C286.857748,111.924323 286.557325,112.551293 286.557325,113.010834 C286.557325,113.471563 286.356647,113.847982 286.112033,113.847982 C285.819922,113.847982 285.666742,122.75025 285.666742,139.664201 C285.666742,156.395287 285.509999,165.577791 285.220263,165.755907 C284.97565,165.9079 284.774972,166.822232 284.774972,167.787624 C284.774972,168.753016 284.574294,169.543854 284.32968,169.543854 C284.085067,169.543854 283.884389,169.94521 283.884389,170.434437 C283.884389,170.924851 283.686085,171.326207 283.443847,171.326207 C282.999743,171.326207 281.777863,172.22154 280.251997,173.665472 C279.799581,174.094139 279.139363,174.445622 278.786692,174.445622 C278.432833,174.445622 278.02079,174.645113 277.868797,174.890914 C277.717992,175.135527 277.004338,175.336205 276.28356,175.336205 C275.562781,175.336205 274.972622,175.536883 274.972622,175.781497 C274.972622,176.027298 274.070164,176.226788 272.968216,176.226788 C271.865081,176.226788 270.962623,176.427466 270.962623,176.673267 C270.962623,176.917881 270.372464,177.118559 269.651685,177.118559 C268.930907,177.118559 268.217253,177.319237 268.066448,177.56385 C267.914455,177.809651 267.351606,178.010329 266.814882,178.012704 C266.278157,178.013891 265.26408,178.314315 264.5623,178.681235 C263.860521,179.046968 262.807258,179.346204 262.223036,179.346204 C261.638813,179.346204 261.160274,179.546882 261.160274,179.791495 C261.160274,180.037296 260.458494,180.237974 259.599972,180.237974 C258.742638,180.237974 258.040858,180.437465 258.040858,180.683265 C258.040858,180.927879 257.339079,181.128557 256.481744,181.128557 C255.623222,181.128557 254.92263,181.329235 254.92263,181.573848 C254.92263,181.819649 254.334846,182.020327 253.61763,182.020327 C252.899226,182.020327 252.011018,182.320751 251.644098,182.687671 C251.27599,183.055778 250.47209,183.356202 249.855807,183.356202 C249.240711,183.356202 248.612553,183.55688 248.461748,183.801493 C248.309755,184.047294 247.697034,184.247972 247.098562,184.247972 C246.50009,184.247972 246.010864,184.44865 246.010864,184.693264 C246.010864,184.937877 245.408829,185.138555 244.673802,185.138555 C243.938774,185.138555 243.33674,185.339233 243.33674,185.583847 C243.33674,185.829648 242.747768,186.030326 242.026989,186.030326 C241.306211,186.030326 240.602056,186.214379 240.461938,186.441181 C240.32182,186.666796 239.609353,186.983843 238.8767,187.145335 C238.144047,187.30564 237.544388,187.6215 237.544388,187.847115 C237.544388,188.072729 237.055161,188.25797 236.456689,188.25797 C235.859405,188.25797 235.245497,188.458648 235.094691,188.703262 C234.942698,188.947875 234.229045,189.148553 233.508266,189.148553 C232.787488,189.148553 232.198515,189.313608 232.198515,189.514286 C232.198515,189.714964 231.203437,190.149569 229.988682,190.480866 C228.773927,190.810975 227.677916,191.348887 227.552047,191.675434 C227.427366,192.000794 226.917952,192.267969 226.419226,192.267969 C225.921687,192.267969 225.514393,192.468647 225.514393,192.71326 C225.514393,192.959061 224.924234,193.158552 224.203455,193.158552 C223.483864,193.158552 222.77021,193.35923 222.618218,193.605031 C222.466225,193.849644 221.953249,194.050322 221.478271,194.050322 C221.002106,194.050322 220.612625,194.251 220.612625,194.495614 C220.612625,194.740227 220.278953,194.940905 219.87166,194.940905 C218.870644,194.940905 215.712044,196.359901 215.712044,196.808754 C215.712044,197.007058 215.210942,197.16855 214.598221,197.16855 C213.9855,197.16855 213.484399,197.369228 213.484399,197.615029 C213.484399,197.859642 213.083043,198.06032 212.592628,198.06032 C212.102214,198.06032 211.702045,198.260998 211.702045,198.505612 C211.702045,198.751413 211.368374,198.950903 210.959893,198.950903 C209.958878,198.950903 206.800277,200.369899 206.800277,200.81994 C206.800277,201.017056 206.299175,201.179736 205.686454,201.179736 C205.073733,201.179736 204.572632,201.379226 204.572632,201.625027 C204.572632,201.869641 204.171276,202.070319 203.682049,202.070319 C203.191634,202.070319 202.790278,202.270997 202.790278,202.51561 C202.790278,202.761411 202.539728,202.958527 202.233367,202.954964 C201.538712,202.945465 196.82931,205.291854 196.626257,205.746645 C196.545511,205.930699 196.094282,206.080317 195.624054,206.080317 C195.153826,206.080317 194.770282,206.280995 194.770282,206.525608 C194.770282,206.771409 194.368926,206.972087 193.878511,206.972087 C193.389285,206.972087 192.987929,207.134767 192.987929,207.334258 C192.987929,207.533748 192.286149,207.971915 191.428815,208.307962 C190.570293,208.645196 189.868513,209.183108 189.868513,209.504905 C189.868513,209.83264 189.378099,210.090315 188.754691,210.090315 C188.14197,210.090315 187.640868,210.290993 187.640868,210.536794 C187.640868,210.781407 187.239512,210.982085 186.750285,210.982085 C186.259871,210.982085 185.858515,211.182763 185.858515,211.427377 C185.858515,211.67199 185.580653,211.872668 185.241044,211.872668 C184.49058,211.872668 182.978963,212.646882 181.105177,213.989881 C180.335713,214.540855 179.486691,214.992084 179.218328,214.992084 C178.948779,214.992084 178.729101,215.192762 178.729101,215.437375 C178.729101,215.681989 178.328933,215.882667 177.838519,215.882667 C177.348104,215.882667 176.946748,216.083345 176.946748,216.329146 C176.946748,216.573759 176.546579,216.774437 176.056165,216.774437 C175.565751,216.774437 175.165582,216.975115 175.165582,217.219729 C175.165582,217.464342 174.858034,217.66502 174.482802,217.66502 C174.10757,217.66502 173.68484,217.966631 173.543534,218.333551 C173.402228,218.701659 173.007997,219.002082 172.6672,219.002082 C172.325216,219.002082 172.046167,219.20276 172.046167,219.447373 C172.046167,219.693174 171.682809,219.892665 171.238705,219.892665 C170.794601,219.892665 170.001388,220.294021 169.475351,220.784435 C168.949313,221.27485 168.295031,221.675018 168.023107,221.675018 C167.749995,221.675018 167.247706,221.925569 166.905722,222.231929 C165.430917,223.554742 164.92744,223.903851 164.490461,223.903851 C164.235161,223.903851 164.02617,224.103341 164.02617,224.349142 C164.02617,224.593756 163.624814,224.794434 163.1344,224.794434 C162.643986,224.794434 162.243817,224.963051 162.243817,225.169666 C162.243817,225.376281 161.553912,225.916568 160.710827,226.370172 C159.868929,226.823775 159.278769,227.356938 159.401076,227.554053 C159.523383,227.752356 159.309643,227.913849 158.928474,227.913849 C158.546117,227.913849 158.233819,228.114527 158.233819,228.35914 C158.233819,228.603754 157.832463,228.804432 157.342048,228.804432 C156.851634,228.804432 156.451465,229.00511 156.451465,229.249723 C156.451465,229.495524 156.241288,229.696202 155.985987,229.696202 C155.730687,229.696202 154.980222,230.197304 154.320004,230.810025 C153.658597,231.422746 152.910508,231.923847 152.655207,231.923847 C152.401094,231.923847 151.903555,232.324016 151.549697,232.81443 C151.197026,233.304844 150.6793,233.7062 150.400251,233.7062 C150.121202,233.7062 149.198558,234.35692 148.350723,235.153695 C147.502888,235.95047 146.271508,236.886175 145.614852,237.234096 C144.958195,237.582018 144.420283,238.033246 144.420283,238.236299 C144.420283,238.440539 144.211293,238.606782 143.954805,238.606782 C143.698317,238.606782 143.016724,239.05801 142.440814,239.610172 C141.863716,240.161146 140.819953,241.055291 140.121736,241.595578 C139.018601,242.44935 138.093582,243.210502 135.639135,245.281404 C135.343462,245.531955 134.880358,245.736195 134.610809,245.736195 C134.341259,245.736195 134.243889,245.936873 134.395881,246.181487 C134.546687,246.427288 134.438629,246.627966 134.15483,246.627966 C133.871031,246.627966 133.107505,247.187252 132.457973,247.871219 C131.808441,248.556375 130.474941,249.708195 129.494113,250.433723 C127.184534,252.142455 108.775591,270.524088 108.775591,271.12256 C108.775591,271.374298 108.61766,271.528665 108.424107,271.468106 C107.98594,271.329175 106.29502,273.033157 104.550665,275.370047 C103.820387,276.3485 102.617506,277.768683 101.877729,278.525085 C101.137951,279.282674 99.9303205,280.671984 99.1952927,281.612439 C98.4602649,282.552895 97.6076801,283.572909 97.3013196,283.87927 C96.994959,284.185631 96.7444084,284.560863 96.7444084,284.711668 C96.7444084,284.863661 96.2931797,285.469257 95.7422057,286.059417 C94.2662128,287.63753 93.6261805,288.442617 93.6261805,288.719292 C93.6261805,288.85466 93.0241464,289.594438 92.2891186,290.363901 C91.5540908,291.132178 90.9520567,291.918266 90.9520567,292.109444 C90.9520567,292.300623 90.2502774,293.201892 89.3929428,294.111475 C88.5356083,295.021057 87.8338289,296.037509 87.8338289,296.37118 C87.8338289,296.703665 87.6331509,296.976777 87.38735,296.976777 C87.1427365,296.976777 86.9420585,297.185767 86.9420585,297.441067 C86.9420585,297.696368 86.7378181,298.147597 86.4872675,298.44327 C84.3546181,300.970151 83.8238307,301.745552 83.8238307,302.336899 C83.8238307,302.710944 83.4224746,303.307041 82.9320602,303.660899 C82.4416459,304.01357 82.0414773,304.549107 82.0414773,304.84953 C82.0414773,305.151141 81.5391885,305.937229 80.9264674,306.598635 C80.3137463,307.260041 79.812645,308.072253 79.812645,308.40355 C79.812645,308.736034 79.6119669,309.006772 79.3673535,309.006772 C79.12274,309.006772 78.922062,309.408128 78.922062,309.898542 C78.922062,310.388956 78.721384,310.789125 78.4767705,310.789125 C78.2309696,310.789125 78.0302916,311.242729 78.0302916,311.796077 C78.0302916,312.349426 77.6503095,313.040519 77.1848315,313.331442 C76.3773696,313.834919 74.9120638,316.275116 74.9120638,317.114639 C74.9120638,317.331941 74.5107077,317.9411 74.0202933,318.467138 C73.5310664,318.993175 73.1297104,319.786388 73.1297104,320.230492 C73.1297104,320.674596 72.978905,321.039141 72.7948512,321.040329 C72.3471848,321.043891 70.9020655,323.620644 70.9020655,324.415044 C70.9020655,324.762965 70.7013875,325.047952 70.4555866,325.047952 C70.2109731,325.047952 70.0102951,325.449308 70.0102951,325.938535 C70.0102951,326.428949 69.8096171,326.830305 69.5650036,326.830305 C69.3203902,326.830305 69.1197121,327.099855 69.1197121,327.429965 C69.1197121,328.195866 67.8562718,330.741746 67.3088601,331.080167 C67.0796834,331.222661 66.8920673,331.762948 66.8920673,332.283048 C66.8920673,332.801961 66.6403292,333.92647 66.3339686,334.780243 C65.8886771,336.022309 65.8886771,336.37023 66.3339686,336.519848 C66.6403292,336.621968 66.8920673,337.091009 66.8920673,337.561236 C66.8920673,338.513566 72.3412476,338.884049 72.9064709,337.969717 C73.0584637,337.723916 73.7721176,337.523238 74.492896,337.523238 C75.2136745,337.523238 75.8026467,337.323748 75.8026467,337.077947 C75.8026467,336.833333 76.1921283,336.632655 76.6682934,336.632655 C77.143271,336.632655 77.6562467,336.431977 77.8082396,336.187364 C77.959045,335.941563 78.4720207,335.740885 78.9481858,335.740885 C79.4243508,335.740885 79.812645,335.562768 79.812645,335.344279 C79.812645,335.125789 80.3220584,334.819428 80.9454665,334.662686 C81.5676871,334.505943 81.9536064,334.179396 81.802801,333.934783 C81.6519957,333.691357 81.6947436,333.520365 81.8966091,333.5548 C83.0769284,333.760228 84.7274755,333.450305 84.4911742,333.067948 C84.3403688,332.823335 84.6312925,332.622657 85.1395186,332.622657 C85.6477446,332.622657 86.411271,332.445728 86.836376,332.228426 C88.0867545,331.593143 89.7646128,330.9163 90.840437,330.615877 C91.3925984,330.460322 91.8438271,330.148024 91.8438271,329.918847 C91.8438271,329.690858 92.2439958,329.503242 92.7344101,329.503242 C93.2248245,329.503242 93.6261805,329.302564 93.6261805,329.05795 C93.6261805,328.813337 94.3279599,328.612659 95.1852944,328.612659 C96.042629,328.612659 96.7444084,328.411981 96.7444084,328.16618 C96.7444084,327.921566 97.2336353,327.720888 97.832107,327.720888 C98.4305788,327.720888 99.0432999,327.52021 99.1952927,327.275597 C99.3472855,327.030983 99.9481322,326.830305 100.532355,326.830305 C101.11539,326.830305 101.707924,326.645064 101.848042,326.418262 C101.986973,326.192648 102.700627,325.8756 103.43328,325.715295 C104.165933,325.553803 104.764405,325.237943 104.764405,325.012329 C104.764405,324.786714 105.366439,324.60266 106.101467,324.60266 C106.836495,324.60266 107.438529,324.401982 107.438529,324.156182 C107.438529,323.911568 108.128434,323.71089 108.971519,323.71089 C109.814604,323.71089 110.629191,323.510212 110.779996,323.265599 C110.931989,323.019798 111.745388,322.820307 112.588473,322.820307 C113.431558,322.820307 114.121463,322.619629 114.121463,322.373828 C114.121463,322.129215 114.729435,321.928537 115.472774,321.928537 C116.262425,321.928537 116.929768,321.650675 117.079386,321.260006 C117.25394,320.806402 117.965219,320.591475 119.293969,320.591475 C120.369793,320.591475 121.250877,320.391984 121.250877,320.146183 C121.250877,319.90157 122.041714,319.700892 123.007106,319.700892 C123.972498,319.700892 124.88683,319.500214 125.038823,319.2556 C125.189628,319.009799 126.004215,318.810309 126.8473,318.810309 C127.690385,318.810309 128.38029,318.609631 128.38029,318.36383 C128.38029,318.119216 129.242375,317.918538 130.295637,317.918538 C131.350088,317.918538 132.424724,317.705986 132.685962,317.444748 C132.946012,317.184698 133.910217,316.902086 134.829298,316.81659 C135.747193,316.731094 136.717334,316.442546 136.984509,316.176558 C137.251684,315.909383 138.344133,315.690894 139.411645,315.690894 C140.593151,315.690894 141.246246,315.516339 141.078816,315.245602 C140.907824,314.968928 141.734285,314.799123 143.254213,314.799123 C144.601962,314.799123 145.828592,314.599633 145.980585,314.353832 C146.13139,314.109218 147.234525,313.90854 148.430281,313.90854 C149.627225,313.90854 150.73036,313.707862 150.881166,313.463249 C151.033159,313.217448 152.154106,313.01677 153.372423,313.01677 C154.93035,313.01677 155.66419,312.819654 155.844682,312.349426 C156.03586,311.851887 156.827885,311.680895 158.949847,311.680895 C160.551709,311.680895 161.797338,311.486155 161.797338,311.235604 C161.797338,310.987428 162.977657,310.789125 164.445338,310.789125 C165.901144,310.789125 167.215645,310.588447 167.367638,310.343833 C167.518443,310.09922 169.034809,309.898542 170.735229,309.898542 C172.49977,309.898542 173.82852,309.707363 173.82852,309.45325 C173.82852,309.199137 175.135896,309.006772 176.85769,309.006772 C178.524861,309.006772 180.078038,308.817968 180.310777,308.585229 C180.544703,308.353677 182.313995,308.068691 184.243591,307.951134 C186.173188,307.833577 187.967415,307.522467 188.231028,307.258854 C188.494641,306.995241 190.274619,306.779127 192.185216,306.779127 C194.206246,306.779127 195.660865,306.592698 195.660865,306.333835 C195.660865,306.06666 197.434906,305.888544 200.091218,305.888544 C202.563477,305.888544 204.641504,305.691428 204.795871,305.442065 C204.949052,305.195076 206.99858,304.996773 209.411466,304.996773 C211.798228,304.996773 213.941565,304.812719 214.174304,304.587105 C214.407043,304.362678 217.388714,304.112128 220.799053,304.030194 C225.255531,303.924511 227.052133,303.726208 227.185127,303.32604 C227.324058,302.909247 229.323714,302.769128 235.157626,302.769128 C240.235136,302.769128 242.8487,302.614761 242.669396,302.323837 C242.487717,302.030538 246.896697,301.878545 255.56385,301.878545 C263.058996,301.878545 268.734979,301.705179 268.734979,301.477189 C268.734979,301.257512 271.441163,301.048522 274.749382,301.012899 C278.670322,300.971338 280.764973,301.110269 280.764973,301.413067 C280.764973,301.668368 281.166329,301.878545 281.656744,301.878545 C282.145971,301.878545 282.547327,302.078036 282.547327,302.323837 C282.547327,302.56845 282.84775,302.769128 283.215858,302.769128 C283.631463,302.769128 283.884389,303.189484 283.884389,303.882951 C283.884389,304.495672 284.085067,304.996773 284.32968,304.996773 C284.574294,304.996773 284.774972,305.787611 284.774972,306.753003 C284.774972,307.718395 284.97565,308.632727 285.220263,308.78472 C285.507624,308.961649 285.666742,316.586226 285.666742,330.197896 C285.666742,343.99362 285.82111,351.336774 286.112033,351.336774 C286.356647,351.336774 286.557325,351.837875 286.557325,352.450596 C286.557325,353.142876 286.81025,353.564419 287.225856,353.564419 C287.593963,353.564419 287.894387,353.915902 287.894387,354.346944 C287.894387,356.308602 295.281476,357.08519 298.202588,355.43108 C299.341347,354.785111 306.216647,348.491658 309.841913,344.776146 C314.560816,339.938499 318.341637,336.222987 323.344339,331.508835 C326.723804,328.322922 337.25762,317.974348 346.751234,308.511607 C356.244848,299.050054 364.31828,291.190362 364.692325,291.047869 C365.06637,290.904188 365.733713,290.22497 366.17663,289.53744 C367.241767,287.883331 368.834129,286.282657 369.413602,286.282657 C369.668902,286.282657 369.87908,286.076041 369.87908,285.823116 C369.87908,285.427697 372.737258,282.273846 373.094678,282.272658 C373.532845,282.271471 379.883295,275.919833 379.79305,275.571912 C379.731302,275.336798 379.851234,275.194305 380.059037,275.254865 C380.566076,275.40567 384.564199,271.709157 384.242402,271.38736 C384.103471,271.248429 384.223403,271.133247 384.509577,271.133247 C385.312289,271.133247 410.425541,245.914312 410.425541,245.109225 C410.425541,244.718556 410.626219,244.399133 410.87202,244.399133 C411.116634,244.399133 411.317312,243.998965 411.317312,243.50855 C411.317312,243.018136 411.51799,242.61678 411.762603,242.61678 C412.007217,242.61678 412.207895,242.132303 412.207895,241.540956 C412.207895,240.948421 412.432322,240.389135 412.706621,240.297702 C412.980921,240.206269 413.244533,239.183879 413.293218,238.024934 C413.341904,236.865989 413.619766,235.68092 413.909502,235.391183 C414.607719,234.692966 414.585157,230.808837 413.878628,230.061935 C413.572268,229.737763 413.295593,228.477885 413.262345,227.261942 C413.229096,226.045999 412.978546,224.9773 412.704246,224.885867 C412.431134,224.794434 412.207895,224.347955 412.207895,223.891976 C412.207895,223.437185 412.007217,222.940834 411.762603,222.788841 C411.51799,222.638035 411.317312,222.12506 411.317312,221.648895 C411.317312,221.173917 411.116634,220.784435 410.87202,220.784435 C410.626219,220.784435 410.425541,220.511323 410.425541,220.178839 C410.425541,219.182573 379.287198,188.25797 378.284996,188.25797 C377.991697,188.25797 377.865828,188.142788 378.007134,188.001483 C378.14844,187.860177 377.02868,186.615735 375.519439,185.234738 C374.010197,183.854928 370.962029,180.862569 368.746258,178.585052 C366.530488,176.308722 364.475022,174.445622 364.179349,174.445622 C363.883675,174.445622 363.641437,174.243757 363.641437,173.997956 C363.641437,173.416108 355.755622,165.533855 355.173774,165.533855 C354.929161,165.533855 354.72967,165.33199 354.72967,165.086189 C354.72967,164.504342 346.843855,156.622089 346.262007,156.622089 C346.017394,156.622089 345.817903,156.309791 345.817903,155.927434 C345.817903,155.545077 345.617225,155.357461 345.372612,155.508266 C345.127998,155.660259 344.92732,155.548639 344.92732,155.26009 C344.92732,154.692492 341.86134,151.721507 341.27593,151.721507 C341.078814,151.721507 340.917322,151.513705 340.917322,151.260779 C340.917322,150.66112 337.966524,147.710322 337.366864,147.710322 C337.113939,147.710322 336.907324,147.550017 336.907324,147.352901 C336.907324,146.957482 334.021835,143.700323 333.671539,143.700323 C333.551607,143.700323 330.942793,141.244689 327.875625,138.242831 C320.826958,131.342594 319.220346,129.887975 318.650373,129.887975 C318.398635,129.887975 318.193207,129.636237 318.193207,129.327502 C318.193207,128.693407 315.272095,125.877977 314.613063,125.877977 C314.376762,125.877977 314.183209,125.716485 314.183209,125.519369 C314.183209,124.933959 311.211036,121.867979 310.643438,121.867979 C310.356077,121.867979 310.232583,121.685112 310.371513,121.461873 C310.509257,121.238633 309.596113,120.185371 308.342172,119.122608 C307.088231,118.059846 305.734545,116.811842 305.333189,116.351114 C303.430904,114.16503 300.369673,111.369787 298.296396,109.925855 C296.718283,108.826282 290.834498,108.592355 288.89659,109.55181" id="path2" fill="#646464"></path>
    </g>
</svg>